<svg xmlns="http://www.w3.org/2000/svg" viewBox="0 0 64 64">
  <rect width="64" height="64" rx="14" fill="#18202f"/>
  <path d="M17 18h24c5.5 0 9 3.7 9 9.1v18.2c0 1.3-1.5 2-2.5 1.2-2.5-2.1-5.6-3.2-9.1-3.2H17V18Z" fill="#fff6e9"/>
  <path d="M22 18h19c5.5 0 9 3.7 9 9.1v18.2c0 1.3-1.5 2-2.5 1.2-2.5-2.1-5.6-3.2-9.1-3.2H22V18Z" fill="#ff646d"/>
  <path d="M22 18h17c4.1 0 7 2.7 7 6.8v16.8c-2.2-1.2-4.8-1.8-7.6-1.8H22V18Z" fill="#ffd9b6"/>
  <path d="M27 25h12M27 31h10M27 37h13" stroke="#18202f" stroke-width="3" stroke-linecap="round"/>
</svg>
